<svg version="1.1" id="Layer_1" xmlns="http://www.w3.org/2000/svg" xmlns:xlink="http://www.w3.org/1999/xlink" x="0px" y="0px"
	 width="100%" viewBox="0 0 1024 1024" enable-background="new 0 0 1024 1024" xml:space="preserve">
<path fill="#000000" opacity="1.000000" stroke="none" 
	d="
M819.391479,490.898315 
	C789.772278,482.524963 764.561584,466.953796 741.122620,448.123505 
	C719.720398,430.929413 699.889343,411.708496 676.287292,397.346924 
	C652.581543,382.922302 627.429871,372.740906 599.399414,370.178589 
	C552.072632,365.852325 510.940796,379.691650 474.705750,410.144501 
	C448.960480,431.781433 423.751892,454.102600 396.816040,474.287628 
	C359.709686,502.094208 318.427704,520.418030 272.637299,528.463623 
	C254.065292,531.726868 235.372986,532.996094 216.563065,533.385620 
	C212.009659,533.479980 210.411682,532.049866 210.568558,527.424255 
	C210.936264,516.583252 209.567993,517.748169 220.243240,517.716797 
	C271.674377,517.565552 319.523804,504.613617 363.528015,477.825470 
	C365.076294,476.882904 366.808167,476.154175 367.829590,474.558533 
	C367.986969,473.272736 367.018402,472.750031 366.236938,472.216766 
	C344.556763,457.422882 322.128296,444.259308 296.221558,437.993896 
	C261.327026,429.554871 224.962128,442.916199 204.417572,472.467407 
	C201.851746,476.158081 199.948334,476.346222 196.520294,474.138092 
	C187.075500,468.054413 185.954834,470.674408 193.956894,460.016876 
	C202.693954,448.380554 213.813568,439.473877 227.780319,431.611267 
	C208.452713,426.597931 190.214630,421.867218 171.355042,416.975281 
	C173.203018,412.077087 174.754410,407.910645 176.347366,403.760132 
	C177.606400,400.479767 180.077576,402.304352 181.857544,402.767365 
	C198.580551,407.117676 215.262177,411.626984 231.957809,416.082581 
	C238.378098,417.795959 244.759125,419.688324 251.238541,421.139740 
	C258.687927,422.808441 266.080597,419.918274 273.558899,420.380157 
	C274.802612,420.456940 275.348969,419.174683 275.717743,417.963654 
	C277.462524,412.233948 279.159027,406.476837 281.756744,401.057556 
	C283.262970,397.915405 280.600159,397.337372 278.909302,396.316864 
	C262.651978,386.505676 246.350739,376.767273 230.081177,366.976288 
	C223.945816,363.284058 217.938446,359.371887 211.719620,355.828705 
	C208.527893,354.010223 208.564911,352.311523 210.489761,349.515747 
	C217.142242,339.853394 217.125580,339.714722 226.995667,346.105225 
	C246.437637,358.693176 266.463318,370.320221 286.270691,382.306641 
	C287.534912,383.071716 288.909912,383.653656 290.679749,384.545776 
	C295.234924,377.618347 300.473633,371.422607 306.186554,365.637329 
	C308.340973,363.455627 306.460388,361.940613 305.257568,360.527283 
	C294.787170,348.224396 284.240173,335.986847 273.733673,323.714661 
	C267.362518,316.272797 261.022797,308.804108 254.529053,301.183258 
	C257.456543,297.216522 261.350739,294.911926 264.787537,292.144379 
	C266.950104,290.402924 268.022369,292.607666 269.155853,293.931610 
	C280.208008,306.840668 291.239716,319.767242 302.278778,332.687500 
	C308.112549,339.515442 313.949432,346.340759 320.188843,353.639832 
	C328.463440,348.015289 336.813568,342.973969 346.426117,339.025208 
	C343.571014,330.812836 340.831665,322.844818 338.031860,314.898163 
	C331.840515,297.325165 325.719513,279.726074 319.328522,262.225739 
	C317.968384,258.501282 318.747589,256.750854 322.398834,255.593109 
	C325.707001,254.544174 328.879913,253.068726 333.074432,251.398193 
	C342.717438,278.906097 352.242523,306.077667 361.856903,333.503906 
	C371.469208,330.844666 380.839844,329.633514 390.254486,328.818634 
	C393.100739,328.572266 393.376892,327.000397 393.374329,324.806549 
	C393.354004,307.316162 393.357666,289.825806 393.355927,272.335419 
	C393.354462,257.707306 393.355621,243.079163 393.355621,228.328766 
	C398.220825,227.165604 402.524017,227.657059 406.787567,227.804337 
	C409.836243,227.909653 409.303375,230.429581 409.311279,232.310532 
	C409.364960,245.142868 409.346680,257.975525 409.348267,270.808075 
	C409.350494,288.640350 409.427795,306.473236 409.285278,324.304382 
	C409.256256,327.933960 410.100616,329.510315 414.101746,329.999695 
	C422.152985,330.984467 430.120758,332.695221 438.451569,335.377655 
	C442.904968,322.979919 447.331879,310.825867 451.639374,298.629639 
	C461.279816,271.333405 470.917572,244.035812 480.400330,216.684631 
	C481.712311,212.900436 483.586731,212.053040 487.083679,213.589264 
	C490.232452,214.972519 493.861389,215.174469 497.068451,217.515121 
	C492.999969,229.166016 489.023071,240.779663 484.892487,252.338379 
	C475.041290,279.905365 465.222809,307.485107 455.122498,334.960938 
	C453.379700,339.701935 454.175690,342.054688 458.828094,344.055847 
	C466.645935,347.418701 473.198639,352.983246 480.661469,357.906738 
	C486.477539,351.089996 492.220001,344.449615 497.864868,337.727203 
	C517.890137,313.879486 537.914673,290.031006 557.873474,266.127716 
	C568.652527,253.218445 579.395142,240.275864 589.936279,227.172989 
	C592.651062,223.798431 594.954956,222.664780 598.431396,225.835892 
	C600.855103,228.046707 604.088257,229.319977 606.378113,232.667557 
	C600.517517,239.795563 594.672180,246.992493 588.733826,254.111801 
	C566.975769,280.196808 545.200012,306.267029 523.403320,332.319763 
	C514.109375,343.428436 504.796448,354.522186 495.375031,365.522400 
	C493.508972,367.701172 492.682037,369.336761 494.719879,371.981598 
	C496.819824,374.707001 498.714294,374.724915 501.515137,373.196716 
	C523.523376,361.188293 547.450012,356.025269 572.145264,353.777008 
	C574.723083,353.542297 576.991821,352.902924 579.201599,351.634399 
	C620.807190,327.751587 662.499207,304.017700 703.647583,279.347687 
	C704.933411,278.576843 706.295044,277.916931 707.514099,277.053802 
	C709.823914,275.418365 711.214844,276.109894 712.780884,278.330841 
	C720.060852,288.655365 720.149963,288.660004 709.282593,294.950592 
	C676.708069,313.806427 644.107849,332.617950 611.526306,351.461670 
	C609.809082,352.454865 608.171387,353.585632 605.801086,355.095428 
	C616.678406,357.092072 626.860229,358.921143 636.719604,362.119995 
	C659.761963,369.595825 680.678223,381.121704 700.182495,395.337891 
	C702.124756,396.753571 703.776917,397.481598 706.484741,397.037598 
	C742.824036,391.078827 779.065918,384.572754 815.284363,377.933655 
	C818.481384,377.347626 820.466492,378.042053 821.098450,381.407043 
	C821.769226,384.979126 822.460510,388.547394 823.285278,392.862518 
	C789.449036,399.025787 755.828918,405.149689 721.455383,411.410797 
	C757.432800,442.483551 792.746033,472.518188 840.815613,479.898773 
	C841.739319,485.233521 841.565125,487.211639 839.545654,494.724487 
	C832.788696,494.642426 826.349731,492.439270 819.391479,490.898315 
M406.261597,446.736328 
	C432.104279,425.882385 456.827240,403.666626 483.519806,383.888824 
	C462.804565,355.867126 415.730316,337.609100 373.425964,346.664490 
	C330.313141,355.892944 298.584320,389.159058 291.725739,421.282013 
	C293.229889,421.717072 294.761566,422.279877 296.342499,422.597412 
	C305.153625,424.367371 313.776642,426.755493 322.100952,430.176361 
	C341.752930,438.252411 359.959534,448.918243 377.060089,461.431152 
	C381.042786,464.345367 383.838165,465.032349 387.785583,461.531494 
	C393.504425,456.459564 399.715149,451.942230 406.261597,446.736328 
z"/>
<path fill="#000000" opacity="1.000000" stroke="none" 
	d="
M465.978088,473.982483 
	C469.288116,470.662506 472.365784,467.614563 475.391449,464.515839 
	C477.035187,462.832367 478.489868,461.034149 477.139343,458.307556 
	C476.638397,458.562714 476.158691,458.701691 475.814148,458.997894 
	C466.213654,467.251160 466.113098,467.239502 458.014862,456.493286 
	C458.167908,454.648407 459.677979,453.713318 460.806793,452.549530 
	C467.302063,445.853027 473.801636,439.160248 480.352844,432.518585 
	C484.158569,428.660339 486.366821,428.649200 490.035461,432.402405 
	C497.021423,439.549316 503.872131,446.831787 510.981201,453.853271 
	C513.587036,456.427032 513.377686,458.255402 510.625305,460.241028 
	C510.490906,460.337982 510.374451,460.460083 510.251251,460.572235 
	C503.715088,466.523285 503.739990,466.497192 497.248291,460.296021 
	C495.979431,459.083954 495.047485,457.368896 492.956757,456.919159 
	C491.549774,460.752686 493.569977,463.328094 495.948761,465.751648 
	C501.897858,471.812836 507.870575,477.850800 513.871399,483.936249 
	C522.322205,475.958374 529.986145,467.561096 537.724609,459.229645 
	C541.130676,455.562561 544.096863,455.631683 547.524292,459.153046 
	C554.728027,466.554199 561.879639,474.006195 569.021790,481.466827 
	C570.208862,482.706787 572.319580,483.734985 570.711426,486.157013 
	C577.823914,478.466003 584.871582,470.713501 592.084961,463.118347 
	C594.508179,460.566833 595.269104,457.882233 594.096497,453.777679 
	C590.570435,457.426453 587.251587,460.615021 584.231018,464.064758 
	C581.848938,466.785339 579.704468,467.150787 577.181396,464.429413 
	C576.621887,463.825867 575.881653,463.391449 575.233582,462.868073 
	C569.763245,458.450348 569.819885,458.502350 574.526062,453.508575 
	C580.466858,447.204834 586.296265,440.796173 592.192139,434.449890 
	C594.088623,432.408569 595.447937,430.258331 593.921997,426.674591 
	C591.339172,429.054779 588.900696,431.190826 586.595581,433.462250 
	C584.838684,435.193451 583.406494,435.280396 581.507507,433.522461 
	C572.885254,425.540558 571.960510,428.132416 580.692078,419.467773 
	C586.013245,414.187317 591.343262,408.915710 596.671387,403.642151 
	C600.860718,399.495636 602.995178,399.583374 607.095825,403.787781 
	C613.492737,410.346558 619.895081,416.904022 626.454285,423.298706 
	C629.095886,425.874023 629.651855,427.694427 626.571899,430.536499 
	C620.196594,436.419250 620.141174,436.576263 614.026123,430.226288 
	C612.921265,429.078979 611.717346,428.027039 610.228088,426.617859 
	C609.628418,430.481201 610.602417,433.016388 612.910583,435.304749 
	C619.535461,441.872742 625.927063,448.679047 632.637085,455.156769 
	C635.510498,457.930695 635.529419,459.729553 632.376099,462.279541 
	C625.288635,468.010895 625.407898,468.113525 618.897522,462.003815 
	C616.388367,459.649109 613.768433,457.412506 610.937805,454.889252 
	C609.713867,458.600433 610.613770,461.069244 612.713440,463.576538 
	C619.684448,471.900818 627.528259,479.377563 635.247070,486.961914 
	C638.336365,489.997375 638.775085,492.197632 635.149780,494.909149 
	C633.041626,496.485931 631.188293,498.403442 628.965698,500.395813 
	C622.158569,495.753571 617.802734,488.762604 611.078003,483.950226 
	C609.403076,487.506256 610.498047,490.092285 612.838501,492.537598 
	C619.980042,499.999237 626.915283,507.666412 634.249207,514.932190 
	C637.401306,518.054993 637.264709,519.935059 634.088074,522.929504 
	C626.149963,530.412170 627.903748,529.023254 621.415039,523.006287 
	C618.117615,519.948547 614.902832,516.801758 611.625061,513.722412 
	C611.440247,513.548767 611.022888,513.622559 610.083313,513.496765 
	C610.083313,523.011902 610.152771,532.439026 610.036743,541.863831 
	C610.006042,544.364990 611.258789,548.058533 608.173035,548.946045 
	C604.260803,550.071228 599.873718,549.972351 595.842712,548.792297 
	C594.252808,548.326904 594.708313,546.189331 594.700317,544.738220 
	C594.653687,536.240845 594.676208,527.742981 594.647583,519.245483 
	C594.642151,517.628601 594.512268,516.012146 594.414490,513.830261 
	C589.627808,516.454773 586.712646,520.325745 583.304321,523.580322 
	C576.104126,530.455872 567.716125,530.509460 560.660706,523.664246 
	C557.617493,520.711670 554.886292,517.369690 550.440247,514.661377 
	C550.440247,526.439819 550.440247,537.510193 550.440247,548.683838 
	C545.859802,550.003357 541.707581,549.321167 537.610535,549.280701 
	C534.718323,549.252197 534.807495,546.968018 534.804321,544.942139 
	C534.791382,536.611084 534.807434,528.280090 534.812317,519.949036 
	C534.813354,518.171997 534.812378,516.394958 534.812378,513.385864 
	C530.079346,517.630798 526.237854,520.960693 522.527344,524.430786 
	C516.905273,529.688721 510.097504,529.621399 504.625488,524.071167 
	C501.019531,520.413635 497.768097,516.390381 493.559601,513.284668 
	C491.660156,514.517334 492.420746,516.351257 492.404205,517.847900 
	C492.306580,526.677795 492.226166,535.511108 492.380524,544.339050 
	C492.441284,547.814819 491.607483,549.509766 487.685944,549.448425 
	C475.918915,549.264465 477.797150,550.249023 477.682190,539.693176 
	C477.584412,530.713318 477.661987,521.731506 477.661987,511.372192 
	C472.844391,515.995972 468.650391,519.639954 464.926483,523.713684 
	C461.843475,527.086426 459.352539,527.411682 456.550018,523.649048 
	C455.860504,522.723328 454.976715,521.918762 454.089447,521.168335 
	C451.495544,518.974487 451.524170,517.110229 454.039276,514.613770 
	C460.895081,507.808746 467.484406,500.735809 474.204773,493.793732 
	C476.746216,491.168427 478.674713,488.383728 477.125427,484.031006 
	C472.864197,486.192322 470.259094,490.113251 466.974762,493.172791 
	C461.544006,498.231873 461.653717,498.107941 455.052856,492.167816 
	C449.969574,487.593323 454.747986,485.682831 456.986115,483.158081 
	C459.744507,480.046417 462.798035,477.196442 465.978088,473.982483 
M593.292114,492.545593 
	C595.340027,489.888702 594.705750,487.061646 594.221069,483.666443 
	C589.186768,486.950928 585.905029,491.191193 582.060852,494.799927 
	C575.154175,501.283600 577.083496,501.887146 569.776855,495.254639 
	C568.301941,493.915863 566.780762,492.628021 565.263184,491.301147 
	C557.340393,496.585754 556.452515,485.306305 550.604614,485.149994 
	C550.186279,487.689575 550.036682,489.957214 552.083191,492.082428 
	C557.861816,498.083374 563.547913,504.176361 569.155090,510.338074 
	C571.152649,512.533142 572.788269,512.724060 574.943237,510.572815 
	C580.837036,504.689178 586.842712,498.917603 593.292114,492.545593 
M525.035522,500.551575 
	C528.142822,495.558990 535.792603,493.302826 534.397278,484.974670 
	C530.792419,486.416382 529.329468,489.919800 526.476685,491.349518 
	C522.286743,493.449371 521.129639,487.625763 517.464722,487.464752 
	C515.372375,489.559784 513.067200,491.715851 510.941254,494.036163 
	C508.477844,496.724731 506.406921,496.544830 503.851685,493.980103 
	C500.413116,490.528839 497.352692,486.601746 492.530151,484.514191 
	C495.647949,496.669617 507.046661,502.204926 513.793884,511.956512 
	C517.817627,507.890411 521.186829,504.485718 525.035522,500.551575 
z"/>
<path fill="#000000" opacity="1.000000" stroke="none" 
	d="
M574.170654,160.897369 
	C570.667664,176.489044 567.248596,191.670654 563.747803,207.214920 
	C555.839539,205.763718 548.448669,204.259583 540.635132,201.791107 
	C550.449280,157.025940 560.201355,112.543938 570.045837,67.640076 
	C577.762451,68.188377 584.850708,70.308495 592.402039,72.081284 
	C592.369934,78.961929 590.125122,85.255730 588.858582,91.686501 
	C586.743286,102.426300 584.488831,113.144348 581.974915,123.796516 
	C581.215027,127.016464 582.387634,128.026215 585.103638,128.609787 
	C599.542236,131.712189 613.994385,134.757874 628.388428,138.056198 
	C631.629395,138.798843 632.995178,137.978256 633.661194,134.837006 
	C636.963562,119.259056 640.397278,103.709000 643.726990,88.136765 
	C645.155579,81.455299 645.096008,81.430992 651.871765,82.964798 
	C655.594849,83.807602 659.270691,85.081429 663.037476,85.451286 
	C667.518616,85.891296 667.999390,88.127007 667.202454,91.823112 
	C663.111877,110.795654 659.124512,129.790421 655.075012,148.771866 
	C650.194580,171.648163 645.189392,194.498627 640.481567,217.410278 
	C639.612366,221.640488 638.226868,223.185715 633.827393,221.818695 
	C629.722412,220.543198 625.433350,219.788162 621.178772,219.086716 
	C617.079163,218.410828 616.187622,216.356949 617.067505,212.458038 
	C620.537537,197.082687 623.741150,181.647400 627.148315,166.257523 
	C627.714600,163.699768 628.080078,161.785446 624.696411,161.051804 
	C608.828491,157.611298 592.987976,154.044861 577.204163,150.538193 
	C575.021545,153.898041 575.021851,157.305435 574.170654,160.897369 
z"/>
<path fill="#000000" opacity="1.000000" stroke="none" 
	d="
M274.181885,222.652313 
	C261.342712,192.448013 248.764328,162.546188 235.897614,132.768951 
	C234.016037,128.414474 234.863678,126.624741 239.110687,125.131592 
	C244.396652,123.273178 249.484497,120.851196 255.261337,118.418465 
	C262.635773,135.802963 269.818695,152.736069 276.887756,169.400681 
	C279.087982,170.350388 280.518005,169.138702 281.980438,168.541260 
	C294.453491,163.445862 306.841156,158.137344 319.370270,153.185745 
	C323.498810,151.554123 324.548828,149.782379 322.644043,145.467224 
	C316.397858,131.316895 310.691803,116.928505 304.478638,102.762993 
	C302.774200,98.876976 303.524292,97.057800 307.404083,95.757126 
	C311.023102,94.543869 314.634186,93.147240 317.990356,91.349014 
	C322.424957,88.972969 324.711182,89.960709 326.579529,94.696785 
	C331.462585,107.074532 336.779999,119.281265 341.947021,131.546600 
	C352.667694,156.995148 363.396240,182.440399 374.137146,207.880432 
	C377.026428,214.723801 377.050690,214.709656 370.303894,217.635834 
	C367.404419,218.893372 364.367676,219.918182 361.650330,221.492416 
	C357.462372,223.918610 355.389862,223.044388 353.551117,218.420120 
	C348.082184,204.666092 342.138123,191.100616 336.346832,177.475464 
	C335.441864,175.346390 334.364655,173.290512 333.117432,170.677750 
	C321.606873,175.463226 310.284241,180.170486 298.961792,184.878204 
	C298.347076,185.133804 297.733429,185.391800 297.120331,185.651169 
	C285.704163,190.480515 285.658295,190.499802 290.524445,202.129883 
	C295.596893,214.253036 300.634857,226.394226 305.978027,238.398392 
	C307.673187,242.206757 307.033936,243.999634 303.120636,245.460602 
	C297.855804,247.426132 292.804688,249.964050 286.976013,252.561996 
	C282.661194,242.457932 278.505463,232.726440 274.181885,222.652313 
z"/>
<path fill="#000000" opacity="1.000000" stroke="none" 
	d="
M135.043457,211.977539 
	C137.261078,217.579758 139.322327,222.820328 141.559280,228.507599 
	C134.885406,231.804916 128.427185,234.827316 122.947144,239.498810 
	C118.594437,243.209305 114.651581,247.219604 111.809784,252.200729 
	C107.954536,258.958252 108.582436,265.785980 113.439087,271.146667 
	C117.970238,276.148071 124.883011,277.408722 131.777573,274.199219 
	C140.009048,270.367371 146.928528,264.570709 153.955093,258.947266 
	C164.839447,250.236435 177.137909,245.364807 191.081741,248.226364 
	C216.959518,253.537018 230.476883,279.485504 219.227570,303.599426 
	C209.163055,325.173645 192.234283,339.547821 168.481567,344.971313 
	C164.208145,345.947083 161.895996,344.926941 161.535355,340.072113 
	C161.254868,336.296234 160.403122,332.483795 159.229080,328.875092 
	C158.014038,325.140320 159.499146,323.927307 162.797607,322.942902 
	C176.198212,318.943634 186.857162,310.910248 195.113968,299.772675 
	C199.117203,294.372742 201.275620,288.279663 198.564774,281.492340 
	C195.317001,273.360687 186.948685,269.455505 178.516754,271.993469 
	C173.459473,273.515625 169.284195,276.557129 165.170242,279.683472 
	C158.407028,284.823090 151.836319,290.244293 144.424530,294.452728 
	C121.107452,307.692413 93.681793,296.528412 87.210030,271.300140 
	C85.327644,263.962189 85.639481,256.630615 88.073578,249.696335 
	C95.012024,229.930023 108.838493,216.788589 128.385773,209.527023 
	C131.115067,208.513138 133.639603,208.056076 135.043457,211.977539 
z"/>
<path fill="#000000" opacity="1.000000" stroke="none" 
	d="
M39.026184,434.013733 
	C35.071472,430.933685 31.494783,427.928741 27.669050,425.284058 
	C24.989330,423.431580 24.704195,421.505188 25.667377,418.516083 
	C29.989567,405.102753 29.890108,404.910339 43.835449,403.815247 
	C59.553238,402.580963 75.305573,401.791351 91.028015,400.610352 
	C110.882324,399.118927 130.719971,397.406830 150.569412,395.848419 
	C153.020767,395.655975 155.500275,395.822144 158.575867,395.822144 
	C157.806107,402.996674 155.471436,409.306091 153.356384,415.656616 
	C152.761780,417.441956 151.051117,417.258820 149.555527,417.341339 
	C143.416458,417.679779 137.280670,418.085632 131.139236,418.371002 
	C126.754601,418.574738 123.893272,419.832092 122.877815,424.941040 
	C120.518585,436.810760 117.495041,448.550049 114.657936,460.322235 
	C113.864189,463.615814 114.582573,466.076874 117.446114,468.097687 
	C121.928665,471.261017 126.216377,474.699005 130.651642,477.931427 
	C132.821121,479.512543 133.594894,481.172882 132.406937,483.855652 
	C130.011719,489.264709 128.827271,495.185242 125.338379,501.188324 
	C96.431725,478.696899 67.864792,456.469788 39.026184,434.013733 
M81.775406,440.675720 
	C86.045700,443.897430 90.067520,447.494812 95.013496,450.206238 
	C97.525223,439.989594 99.868523,430.458069 102.415215,420.099213 
	C87.097519,420.944214 72.743767,421.736084 57.328274,422.586487 
	C65.838715,428.881378 73.520523,434.563354 81.775406,440.675720 
z"/>
<path fill="#000000" opacity="1.000000" stroke="none" 
	d="
M779.879333,305.078705 
	C815.823792,273.071930 851.517273,241.335114 887.592957,209.258530 
	C892.210571,214.703140 896.369812,219.644287 900.572998,224.547852 
	C902.787964,227.131866 900.562500,228.495605 899.051331,229.861984 
	C891.763245,236.452087 884.387634,242.945297 877.062012,249.494095 
	C855.334106,268.917999 833.613831,288.350647 811.899841,307.790192 
	C811.417847,308.221588 811.046265,308.776337 810.070801,309.922668 
	C822.467285,323.968414 834.858154,338.007751 847.653748,352.505676 
	C842.513000,356.967682 837.681641,361.208191 832.793274,365.381836 
	C830.705933,367.163971 829.475586,365.399719 828.273132,364.041138 
	C814.695740,348.700043 801.132812,333.346191 787.569275,317.992828 
	C785.253235,315.371216 782.898621,312.780640 780.667908,310.087830 
	C779.557617,308.747467 777.868652,307.383118 779.879333,305.078705 
z"/>
<path fill="#000000" opacity="1.000000" stroke="none" 
	d="
M875.336792,562.139221 
	C875.344299,591.773132 875.250061,620.922729 875.441162,650.070435 
	C875.472290,654.822510 874.130249,656.907776 869.267639,656.279358 
	C867.629150,656.067627 865.914978,656.056213 864.280090,656.279846 
	C860.437744,656.805664 858.279541,655.039185 856.248962,651.870483 
	C844.303772,633.229858 832.146851,614.724792 820.049438,596.181763 
	C818.796448,594.261230 817.465881,592.391296 815.022156,590.664673 
	C815.022156,593.059509 815.020386,595.454346 815.022461,597.849182 
	C815.037842,615.338440 814.944397,632.828918 815.145386,650.316040 
	C815.197266,654.825562 813.807434,656.498718 809.139587,656.337097 
	C796.891785,655.913025 798.727173,657.500305 798.687378,646.010803 
	C798.592712,618.694397 798.774597,591.376526 798.553101,564.061523 
	C798.512756,559.086731 799.889709,557.760498 804.938782,557.436096 
	C812.017761,556.981323 816.058594,559.461304 819.724060,565.458435 
	C831.267883,584.345093 843.430115,602.853821 855.373413,621.495789 
	C856.147095,622.703308 856.609497,624.263367 859.135437,624.834778 
	C859.135437,602.624390 859.135437,580.617920 859.135437,558.350891 
	C864.271667,557.205811 868.719421,557.635742 873.127380,557.860291 
	C875.486511,557.980530 875.205444,560.026489 875.336792,562.139221 
z"/>
<path fill="#000000" opacity="1.000000" stroke="none" 
	d="
M914.190796,420.340942 
	C906.536011,422.819092 899.324951,425.411377 891.975586,427.521942 
	C887.902283,428.691681 887.363647,430.619232 888.577576,434.389252 
	C893.974670,451.152222 899.005005,468.034027 904.483826,484.769440 
	C905.862732,488.981628 905.052795,491.015228 900.765320,491.854553 
	C899.148010,492.171173 897.605469,492.872498 896.031250,493.405426 
	C886.593262,496.600464 886.602783,496.598236 883.703613,487.359406 
	C876.588318,464.685303 869.460999,442.014984 862.348938,419.339874 
	C861.907288,417.932037 861.555908,416.495880 861.208191,415.237915 
	C862.278748,413.297028 864.127258,413.261139 865.621094,412.776154 
	C904.509705,400.150879 943.439819,387.652710 982.287659,374.903778 
	C986.843384,373.408661 989.044556,374.174622 990.159973,378.837219 
	C990.969421,382.220581 992.095215,385.559692 993.414917,388.781281 
	C994.985657,392.615631 993.973816,394.252014 989.920654,395.551331 
	C964.752808,403.619263 939.680725,411.986145 914.190796,420.340942 
z"/>
<path fill="#000000" opacity="1.000000" stroke="none" 
	d="
M204.469391,611.527588 
	C203.030334,612.369751 201.892365,613.028320 200.192352,614.012146 
	C207.156769,627.808716 214.061127,641.486267 221.456024,656.135559 
	C214.839233,656.135559 209.408447,656.235413 203.984283,656.089661 
	C201.587494,656.025269 200.930054,653.765320 200.039566,652.024231 
	C194.660629,641.507690 189.218750,631.021179 184.030273,620.410889 
	C182.593338,617.472412 180.844147,616.289673 177.531403,616.258240 
	C163.348190,616.123413 163.350388,616.024658 163.347961,630.289795 
	C163.346725,637.448425 163.248077,644.608704 163.378189,651.764893 
	C163.435059,654.893188 162.395554,656.313416 159.095978,656.275635 
	C145.070694,656.115112 147.062057,657.494324 147.013412,644.891296 
	C146.909302,617.921997 147.088791,590.951172 146.881088,563.983032 
	C146.842148,558.925476 148.418259,557.388245 153.455826,557.541992 
	C165.098755,557.897278 176.761810,557.524170 188.412598,557.707642 
	C203.138062,557.939514 214.382812,566.165283 216.772690,579.463135 
	C219.018845,591.961365 217.215042,603.103943 204.469391,611.527588 
M178.519760,572.812561 
	C174.535294,572.740601 170.550934,572.662109 166.566315,572.599243 
	C164.306076,572.563599 163.306046,573.600830 163.332718,575.950439 
	C163.417648,583.433228 163.370392,590.917542 163.374420,598.401245 
	C163.375305,600.056091 163.825073,601.551880 165.763550,601.532410 
	C175.017136,601.439819 184.430878,602.938416 193.375198,599.342896 
	C199.209656,596.997559 202.382904,591.158142 201.593933,584.831299 
	C200.782455,578.324036 196.473099,574.158020 189.795105,573.296570 
	C186.327911,572.849304 182.873077,572.413391 178.519760,572.812561 
z"/>
<path fill="#000000" opacity="1.000000" stroke="none" 
	d="
M719.932739,655.306885 
	C699.103882,661.288330 679.118958,651.717102 673.475952,633.258423 
	C672.703857,630.733032 671.848877,628.082275 671.860596,625.493286 
	C671.923279,611.707581 670.441101,597.864441 672.683899,584.147644 
	C675.347351,567.857483 688.647278,556.758911 705.137512,556.647278 
	C710.635254,556.610046 716.029480,556.693787 721.353516,558.605591 
	C734.254272,563.238037 743.186218,575.278748 743.321899,588.992737 
	C743.430664,599.980347 743.354919,610.969971 743.346008,621.958679 
	C743.333069,637.973022 735.425293,649.394592 719.932739,655.306885 
M687.390625,602.600342 
	C687.330383,609.750610 687.446838,616.876343 688.297058,624.006287 
	C689.448181,633.659912 696.746765,640.998962 706.308899,641.611755 
	C715.955994,642.229919 724.110474,636.648193 725.833313,626.823242 
	C728.168335,613.506653 727.659363,599.929810 726.221863,586.565369 
	C725.285339,577.858337 717.789490,572.466553 708.983337,572.199280 
	C698.518250,571.881653 691.844360,576.237427 689.229187,585.355591 
	C687.709839,590.653015 687.313599,596.130737 687.390625,602.600342 
z"/>
<path fill="#000000" opacity="1.000000" stroke="none" 
	d="
M265.649963,636.999390 
	C265.650238,612.177246 265.748901,587.854187 265.562988,563.533325 
	C265.528473,559.016724 266.811798,557.492554 271.455048,557.557983 
	C288.777100,557.801758 306.106171,557.784729 323.428986,557.571655 
	C328.002625,557.515381 329.098267,559.010925 328.644226,563.420776 
	C327.720551,572.392029 327.955383,572.412720 318.889801,572.412476 
	C308.061371,572.412231 297.231140,572.532898 286.405518,572.360718 
	C282.543610,572.299316 281.047577,573.518005 281.271820,577.537354 
	C281.586853,583.183899 281.546967,588.870178 281.283783,594.522095 
	C281.102661,598.411133 282.354828,599.834412 286.378540,599.737854 
	C296.368225,599.497925 306.371918,599.832092 316.360992,599.579956 
	C320.654938,599.471558 322.303986,600.796143 322.222626,605.229309 
	C322.025574,615.970337 322.645325,614.257568 313.095032,614.350037 
	C304.266479,614.435547 295.431946,614.546021 286.609222,614.306946 
	C282.337555,614.191223 281.091675,615.907104 281.289734,619.913635 
	C281.544434,625.065369 281.557007,630.250122 281.285034,635.400085 
	C281.070404,639.463440 282.388916,640.987793 286.628937,640.904785 
	C298.785492,640.666687 310.951355,640.930908 323.109741,640.746582 
	C327.344330,640.682373 329.077759,641.744751 328.641968,646.440125 
	C327.733185,656.231873 327.979401,656.262146 318.207947,656.262024 
	C302.714996,656.261780 287.219421,656.089050 271.730591,656.338684 
	C266.847290,656.417358 265.206757,654.719910 265.583221,649.988342 
	C265.912506,645.849731 265.650818,641.664185 265.649963,636.999390 
z"/>
<path fill="#000000" opacity="1.000000" stroke="none" 
	d="
M991.229553,613.045410 
	C1000.104126,632.962158 990.885925,651.391235 969.713989,656.035583 
	C953.556641,659.579834 938.720032,656.361877 925.523132,646.102722 
	C923.119690,644.234253 922.354370,642.864685 924.571716,640.104919 
	C931.159424,631.905762 931.018066,631.852539 940.109924,636.808960 
	C948.465515,641.364014 957.224121,642.933350 966.540100,640.130981 
	C973.765869,637.957336 977.446716,633.896118 977.626770,627.722778 
	C977.781555,622.414673 974.251343,618.255859 967.063904,616.155884 
	C962.630615,614.860535 957.989807,614.275146 953.441284,613.375000 
	C950.843445,612.860901 948.190247,612.541992 945.654724,611.812744 
	C935.408569,608.865601 927.257202,603.398987 925.757324,591.990417 
	C923.740784,576.651306 928.601013,566.808105 940.404846,560.492859 
	C954.293091,553.062500 977.555054,555.889771 989.271423,566.452515 
	C989.618713,566.765625 989.795105,567.268372 990.147644,567.838867 
	C988.398499,571.613770 985.476074,574.607239 983.055725,577.943542 
	C981.241943,580.443726 979.656982,578.765442 977.986511,577.752014 
	C970.239319,573.051636 962.108887,570.285889 952.862488,572.354309 
	C946.221619,573.839905 942.517822,577.317017 941.616211,583.381042 
	C940.921631,588.052612 944.216614,592.940979 949.952759,595.754639 
	C956.816467,599.121460 964.505676,598.858521 971.714661,600.707031 
	C979.420471,602.683105 986.737915,605.282104 991.229553,613.045410 
z"/>
<path fill="#000000" opacity="1.000000" stroke="none" 
	d="
M368.874939,650.176514 
	C378.944733,621.014404 388.927399,592.257874 398.774841,563.455078 
	C400.181610,559.340332 402.088623,556.738037 406.939270,557.615723 
	C408.714172,557.936829 410.606781,557.794495 412.426453,557.638733 
	C415.360077,557.387512 416.974243,558.552979 417.951477,561.396912 
	C428.434906,591.906189 439.013062,622.382812 449.549194,652.873962 
	C449.806152,653.617554 449.878540,654.424805 450.116455,655.592163 
	C445.094147,656.736877 440.314514,656.265686 435.577728,656.074158 
	C433.052032,655.972046 432.643280,653.621094 432.012299,651.785156 
	C430.499634,647.383728 428.988739,642.973450 427.731140,638.495422 
	C426.889099,635.497192 425.410645,634.134888 422.109344,634.204651 
	C413.114929,634.394775 404.112793,634.351318 395.116150,634.225281 
	C392.158691,634.183899 390.499786,635.280457 389.606171,638.095520 
	C388.096649,642.850891 386.129272,647.471985 384.823212,652.276978 
	C383.931824,655.556519 382.112305,656.544189 379.036987,656.266968 
	C375.446991,655.943359 371.750977,656.880005 368.399353,655.578430 
	C367.239197,653.638428 368.434418,652.147522 368.874939,650.176514 
M406.553406,619.738647 
	C411.173706,619.738647 415.794006,619.738647 421.406219,619.738647 
	C417.139069,606.866455 413.116852,594.733093 408.691772,581.384521 
	C404.319641,594.599121 400.345978,606.609375 396.326141,618.759216 
	C399.672668,620.392029 402.694580,619.468506 406.553406,619.738647 
z"/>
<path fill="#000000" opacity="1.000000" stroke="none" 
	d="
M753.012024,164.064819 
	C759.413757,153.697021 765.698608,143.681961 771.786438,133.548523 
	C773.408813,130.848022 774.924927,130.084015 777.718140,131.904907 
	C782.726379,135.169907 787.870728,138.225952 792.733948,141.230713 
	C793.341125,143.291519 792.166382,144.414078 791.407471,145.644394 
	C768.765381,182.349655 746.111023,219.047302 723.454651,255.743729 
	C722.842346,256.735352 722.064392,257.643036 721.574768,258.688690 
	C719.901245,262.262939 717.887451,262.667358 714.614990,260.259888 
	C709.947815,256.826355 704.937195,253.859482 699.592651,250.380417 
	C717.493347,221.456314 735.157349,192.914734 753.012024,164.064819 
z"/>
<path fill="#000000" opacity="1.000000" stroke="none" 
	d="
M40.348915,565.306763 
	C58.362728,551.330261 83.245811,554.145691 94.525246,571.162964 
	C97.424072,575.536499 98.921547,580.448730 100.042389,585.498230 
	C100.290611,586.616516 100.587051,588.238953 99.369453,588.655762 
	C95.191307,590.085999 90.823364,589.328491 86.540749,589.154602 
	C84.207619,589.059753 84.166740,586.739319 83.514412,585.091309 
	C79.498535,574.945557 72.496689,571.015686 60.895679,572.370667 
	C52.699726,573.327942 47.611443,578.815735 46.236801,589.310486 
	C44.636108,601.530945 44.453144,613.857971 46.444038,626.050720 
	C47.878601,634.836304 54.466476,640.592651 63.062950,641.591248 
	C71.084061,642.522949 78.734505,638.568176 82.077278,630.769531 
	C83.865227,626.598206 86.721329,626.781555 90.084854,626.776855 
	C100.604576,626.762207 101.604034,628.306396 97.201019,637.986511 
	C91.062546,651.482117 74.459152,659.228455 59.335495,656.880737 
	C43.951088,654.492493 30.340546,641.408875 29.535717,624.851440 
	C28.937824,612.551147 28.189575,600.327454 29.528830,588.015503 
	C30.488914,579.189331 33.617123,571.653015 40.348915,565.306763 
z"/>
<path fill="#000000" opacity="1.000000" stroke="none" 
	d="
M673.339355,681.971985 
	C675.288635,681.766663 676.785156,681.657349 678.281738,681.657227 
	C781.381775,681.648621 884.481812,681.647095 987.581848,681.652649 
	C993.211548,681.652954 994.463440,682.807068 993.892700,687.154358 
	C993.642395,689.061035 992.882446,690.276489 990.778137,690.264038 
	C989.279541,690.255188 987.780762,690.309753 986.282043,690.309753 
	C884.347900,690.309265 782.413818,690.306152 680.479675,690.302979 
	C679.480347,690.302917 678.480774,690.311584 677.481689,690.295959 
	C671.416931,690.201111 670.318481,688.243896 673.339355,681.971985 
z"/>
<path fill="#000000" opacity="1.000000" stroke="none" 
	d="
M72.999924,690.317932 
	C59.672539,690.314758 46.845165,690.310547 34.017788,690.308655 
	C30.991909,690.308167 27.904596,690.764221 27.796705,686.072021 
	C27.689638,681.415588 30.600292,681.633728 33.742844,681.634216 
	C135.029144,681.649780 236.315460,681.665405 337.601685,681.583862 
	C341.719879,681.580566 343.963287,682.408813 343.366516,687.101624 
	C343.069336,689.438293 342.070251,690.318726 339.875641,690.277954 
	C338.210724,690.247009 336.544342,690.305664 334.878632,690.305725 
	C247.752396,690.311035 160.626160,690.314270 72.999924,690.317932 
z"/>
<path fill="#000000" opacity="1.000000" stroke="none" 
	d="
M521.350464,636.999451 
	C521.345154,642.327148 521.257263,647.156799 521.364929,651.982117 
	C521.429749,654.885071 520.356018,656.234192 517.321960,656.238525 
	C503.044464,656.258728 505.768951,657.075806 505.692932,645.585449 
	C505.548676,623.777832 505.652771,601.968567 505.649384,580.159973 
	C505.648193,572.397034 505.642426,572.405823 497.631714,572.416138 
	C492.470978,572.422729 487.307343,572.291138 482.150482,572.428284 
	C478.919586,572.514221 477.843231,571.127441 477.684143,567.998474 
	C477.158020,557.651306 477.064209,557.652710 487.592865,557.651550 
	C506.071899,557.649536 524.553467,557.821899 543.028320,557.541870 
	C548.113342,557.464783 549.667969,559.015381 549.457581,564.046814 
	C549.106812,572.436829 549.396851,572.442139 540.852600,572.417419 
	C536.024841,572.403503 531.189331,572.583313 526.371460,572.364990 
	C522.479309,572.188721 521.227783,573.599976 521.265747,577.567261 
	C521.453674,597.209839 521.350708,616.855225 521.350464,636.999451 
z"/>
<path fill="#000000" opacity="1.000000" stroke="none" 
	d="
M610.635010,655.892700 
	C606.857605,656.100281 603.522766,656.054688 600.199829,656.232788 
	C596.671021,656.422058 595.610535,654.744629 595.618591,651.417664 
	C595.690125,621.757690 595.713806,592.097290 595.597046,562.437561 
	C595.582153,558.653992 596.963440,557.557861 600.572693,557.626709 
	C614.702637,557.896423 612.187134,556.040283 612.247131,569.124695 
	C612.369324,595.784973 612.324280,622.446228 612.272339,649.106934 
	C612.268005,651.336304 613.061646,653.818604 610.635010,655.892700 
z"/>
<path fill="#000000" opacity="1.000000" stroke="none" 
	d="
M371.829559,696.489136 
	C375.387177,696.686096 378.548248,696.751587 381.709045,696.828064 
	C383.508453,696.871582 385.082733,697.244080 385.142761,699.503052 
	C385.202606,701.755493 383.724243,702.293518 381.872284,702.302429 
	C377.211121,702.324951 372.548889,702.260620 367.888885,702.338074 
	C365.041931,702.385315 364.051697,700.851624 364.054108,698.300049 
	C364.061188,690.808472 364.087006,683.316956 364.082977,675.825378 
	C364.081635,673.271545 364.977478,671.716309 367.858856,671.777161 
	C372.185455,671.868591 376.515106,671.810730 380.843475,671.820374 
	C382.900482,671.824951 384.481232,672.362610 384.400055,674.884399 
	C384.321899,677.312683 382.589050,677.309082 380.878601,677.330017 
	C378.714569,677.356445 376.548187,677.409180 374.386383,677.339539 
	C371.916748,677.260010 370.228149,677.739441 370.179840,680.812378 
	C370.128540,684.075562 371.817993,684.789062 374.567078,684.646362 
	C376.059814,684.568787 377.562256,684.678162 379.060333,684.703613 
	C380.929443,684.735291 382.341064,685.241150 382.257629,687.529419 
	C382.174652,689.804077 380.662476,690.184570 378.855255,690.217468 
	C377.523804,690.241699 376.191071,690.212585 374.860291,690.252869 
	C369.912506,690.402527 369.323334,691.460999 371.829559,696.489136 
z"/>
<path fill="#000000" opacity="1.000000" stroke="none" 
	d="
M428.328094,693.855469 
	C428.084320,698.831116 425.282593,701.231628 421.186127,702.043762 
	C416.306213,703.011230 411.548737,702.560608 407.514832,699.157654 
	C406.464661,698.271667 406.305573,697.173157 407.121979,696.065613 
	C408.109955,694.725281 409.187866,694.091248 410.904968,695.225159 
	C413.459747,696.912292 416.241577,697.838745 419.402008,696.893127 
	C420.910767,696.441833 422.370209,696.043762 422.519135,694.191833 
	C422.681091,692.177795 421.322205,691.158508 419.677551,690.570496 
	C418.274292,690.068848 416.788116,689.792664 415.330963,689.449280 
	C409.405029,688.052368 406.286591,684.574341 406.984802,680.121033 
	C407.769653,675.115051 413.458588,671.057068 418.899048,671.876770 
	C420.830292,672.167664 422.788452,672.896057 424.498840,673.847839 
	C425.940582,674.650208 428.205536,675.573364 426.859131,677.964478 
	C425.726837,679.975403 424.015839,679.740845 422.146210,678.679443 
	C420.083984,677.508667 417.810120,676.851624 415.440491,677.745483 
	C414.007538,678.286011 412.651550,679.110840 412.664307,680.894775 
	C412.675537,682.467834 413.857574,683.213684 415.194855,683.604858 
	C417.419495,684.255493 419.649048,684.930603 421.919769,685.373840 
	C426.408569,686.250000 428.521667,688.896667 428.328094,693.855469 
z"/>
<path fill="#000000" opacity="1.000000" stroke="none" 
	d="
M558.661011,700.609070 
	C554.413879,695.596069 553.324707,680.594971 556.674988,675.658081 
	C558.714355,672.652832 561.776428,671.314575 565.321045,671.769226 
	C568.926331,672.231506 572.096741,673.696777 573.282349,677.587769 
	C574.972107,683.133728 574.550720,688.821106 573.872253,694.417847 
	C572.982483,701.757935 565.506287,704.489075 558.661011,700.609070 
M564.434448,697.392700 
	C566.986389,696.839722 568.636902,695.498230 568.627502,692.663330 
	C568.615479,689.008179 568.684998,685.351624 568.602844,681.698364 
	C568.542786,679.027588 567.297424,677.112549 564.403442,677.217407 
	C561.561462,677.320435 560.398865,679.263245 560.371826,681.933899 
	C560.336548,685.422668 560.402100,688.912537 560.347595,692.400818 
	C560.308838,694.881165 561.373779,696.517578 564.434448,697.392700 
z"/>
<path fill="#000000" opacity="1.000000" stroke="none" 
	d="
M602.774170,677.195557 
	C600.421265,679.117737 599.277283,683.005432 595.123962,680.264893 
	C595.259644,676.043396 597.489136,673.173950 601.472107,672.000427 
	C605.007385,670.958801 608.625305,671.570862 611.052246,674.553833 
	C613.746826,677.865662 613.605103,681.796753 611.376526,685.262573 
	C609.071106,688.847900 606.236633,692.093079 603.634460,695.485962 
	C605.431091,697.392395 607.376038,696.572876 609.094299,696.736938 
	C610.966064,696.915771 612.955139,696.790405 613.039612,699.408508 
	C613.135864,702.392822 610.901733,702.307495 608.881226,702.338623 
	C605.888611,702.384766 602.890808,702.449280 599.903015,702.322815 
	C598.191772,702.250427 595.975220,703.042664 595.037964,700.867981 
	C594.070007,698.621948 595.187622,696.747192 596.669678,694.990723 
	C599.991394,691.053955 603.429199,687.187012 606.411011,683.000549 
	C608.848083,679.578857 607.584412,677.622559 602.774170,677.195557 
z"/>
<path fill="#000000" opacity="1.000000" stroke="none" 
	d="
M533.420593,681.620178 
	C532.550049,687.998657 526.659790,690.818970 524.102844,696.474060 
	C526.760864,696.591187 529.009949,696.686523 531.258545,696.790527 
	C533.025024,696.872131 534.057312,697.732361 534.070435,699.567871 
	C534.083801,701.447205 532.971375,702.261719 531.234619,702.285217 
	C527.410950,702.337097 523.585815,702.378113 519.762817,702.320251 
	C518.342468,702.298828 516.571045,702.647522 515.974426,700.749268 
	C515.457031,699.102966 515.632690,697.505127 516.840698,696.078613 
	C520.169495,692.147583 523.537842,688.243530 526.698242,684.179260 
	C528.102844,682.372925 529.640808,680.078308 527.431702,677.934937 
	C524.963684,675.540344 522.799072,676.795959 521.435974,679.367859 
	C520.268982,681.569763 518.518188,681.682434 516.883728,680.661987 
	C514.916748,679.434021 516.171692,677.648804 516.997925,676.288696 
	C519.337036,672.438232 522.913818,670.898438 527.231445,671.881775 
	C532.078552,672.985596 533.832397,676.490051 533.420593,681.620178 
z"/>
<path fill="#000000" opacity="1.000000" stroke="none" 
	d="
M647.770142,701.249695 
	C639.481384,703.753296 635.122986,701.801575 634.162842,695.395447 
	C636.168274,694.311401 637.976685,693.709595 639.737549,696.074951 
	C640.829346,697.541565 642.470337,697.787048 644.221802,696.876282 
	C645.899048,696.004089 646.707031,694.680725 646.549744,692.839539 
	C646.395508,691.035400 645.593201,689.636902 643.638977,689.294128 
	C642.016968,689.009583 640.830688,688.423950 640.749634,686.496460 
	C640.670471,684.614502 641.582947,683.875977 643.321350,683.519348 
	C645.302124,683.112915 645.814636,681.528687 645.761414,679.699219 
	C645.723450,678.393188 645.135193,677.457520 643.853760,677.085693 
	C641.983154,676.542908 640.453613,677.257751 639.638306,678.872559 
	C638.451355,681.223816 636.670166,681.733887 634.794678,680.287048 
	C632.751770,678.710999 634.456055,676.903809 635.372375,675.481567 
	C637.722107,671.834290 642.912964,670.547791 646.933167,672.426086 
	C650.772217,674.219604 652.714661,678.545532 650.906372,683.039490 
	C649.917053,685.497986 650.076965,687.189880 651.135803,689.471069 
	C653.227783,693.978027 651.768494,697.872498 647.770142,701.249695 
z"/>
<path fill="#000000" opacity="1.000000" stroke="none" 
	d="
M453.138214,671.803711 
	C457.600098,671.816467 461.581512,671.825989 465.562897,671.837402 
	C467.463593,671.842834 468.832581,672.564697 468.924805,674.650574 
	C469.026764,676.956970 467.404724,677.506470 465.614136,677.283813 
	C460.882416,676.695190 460.061829,679.180176 460.280609,683.197937 
	C460.541840,687.994507 460.412292,692.818604 460.290680,697.626648 
	C460.245270,699.421265 461.067017,702.084473 457.919830,702.132141 
	C454.615570,702.182251 455.087952,699.442200 455.060364,697.404846 
	C454.973175,690.961853 455.028168,684.516968 455.028168,678.421936 
	C452.707733,675.623535 447.228180,679.920410 446.949982,674.565552 
	C446.749146,670.700684 450.441376,672.164307 453.138214,671.803711 
z"/>
</svg>